<?xml version="1.0" standalone="no"?>
<!DOCTYPE svg PUBLIC "-//W3C//DTD SVG 20010904//EN"
 "http://www.w3.org/TR/2001/REC-SVG-20010904/DTD/svg10.dtd">
<svg version="1.0" xmlns="http://www.w3.org/2000/svg"
 width="640.000000pt" height="1137.000000pt" viewBox="0 0 640.000000 1137.000000"
 preserveAspectRatio="xMidYMid meet">

<g transform="translate(0.000000,1137.000000) scale(0.100000,-0.100000)"
fill="#000000" stroke="none">
<path d="M0 9026 c1 -1826 3 -2346 13 -2350 9 -3 9 -5 0 -5 -10 -1 -13 -686
-13 -3336 l0 -3335 3200 0 3200 0 0 2185 c0 1596 -3 2185 -11 2185 -8 0 -8 4
0 13 8 10 11 918 11 3388 l0 3374 -23 10 c-33 15 -35 53 -3 61 25 6 26 9 26
80 l0 74 -3015 0 c-2394 0 -3020 -3 -3036 -12 -17 -10 -23 -10 -26 0 -4 9 -46
12 -164 12 l-159 0 0 -2344z m1625 2304 c0 -22 -29 -18 -33 3 -3 14 1 18 15
15 10 -2 18 -10 18 -18z m3495 -110 c0 -5 -5 -12 -11 -16 -14 -8 -33 11 -25
25 7 11 36 4 36 -9z m-1630 -100 c0 -5 -5 -10 -11 -10 -5 0 -7 5 -4 10 3 6 8
10 11 10 2 0 4 -4 4 -10z m-1680 -10 c0 -5 -4 -10 -10 -10 -5 0 -10 5 -10 10
0 6 5 10 10 10 6 0 10 -4 10 -10z m2290 -40 c0 -5 -7 -10 -15 -10 -8 0 -15 5
-15 10 0 6 7 10 15 10 8 0 15 -4 15 -10z m200 -84 c0 -3 -4 -8 -10 -11 -5 -3
-10 -1 -10 4 0 6 5 11 10 11 6 0 10 -2 10 -4z m-160 -96 c0 -5 -4 -10 -9 -10
-6 0 -13 5 -16 10 -3 6 1 10 9 10 9 0 16 -4 16 -10z m-1510 -150 c0 -5 -7 -10
-16 -10 -8 0 -12 5 -9 10 3 6 10 10 16 10 5 0 9 -4 9 -10z m3475 -20 c3 -5 1
-10 -4 -10 -6 0 -11 5 -11 10 0 6 2 10 4 10 3 0 8 -4 11 -10z m-1380 -100 c3
-5 1 -10 -4 -10 -6 0 -11 5 -11 10 0 6 2 10 4 10 3 0 8 -4 11 -10z m-3155
-110 c0 -5 -4 -10 -10 -10 -5 0 -10 5 -10 10 0 6 5 10 10 10 6 0 10 -4 10 -10z
m-730 -110 c0 -5 -4 -10 -10 -10 -5 0 -10 5 -10 10 0 6 5 10 10 10 6 0 10 -4
10 -10z m3820 -171 c0 -5 -4 -9 -10 -9 -5 0 -10 7 -10 16 0 8 5 12 10 9 6 -3
10 -10 10 -16z m-4270 -24 c0 -8 -4 -15 -10 -15 -5 0 -10 7 -10 15 0 8 5 15
10 15 6 0 10 -7 10 -15z m1400 -105 c0 -5 -4 -10 -10 -10 -5 0 -10 5 -10 10 0
6 5 10 10 10 6 0 10 -4 10 -10z m-305 -20 c3 -5 -1 -10 -10 -10 -9 0 -13 5
-10 10 3 6 8 10 10 10 2 0 7 -4 10 -10z m4745 0 c0 -5 -7 -10 -16 -10 -8 0
-12 5 -9 10 3 6 10 10 16 10 5 0 9 -4 9 -10z m-432 -21 c-2 -6 -8 -10 -13 -10
-5 0 -11 4 -13 10 -2 6 4 11 13 11 9 0 15 -5 13 -11z m-4366 -34 c0 -5 -5 -11
-11 -13 -6 -2 -11 4 -11 13 0 9 5 15 11 13 6 -2 11 -8 11 -13z m-1182 -5 c0
-5 -7 -10 -15 -10 -8 0 -15 5 -15 10 0 6 7 10 15 10 8 0 15 -4 15 -10z m2930
-40 c0 -5 -4 -10 -10 -10 -5 0 -10 5 -10 10 0 6 5 10 10 10 6 0 10 -4 10 -10z
m875 -140 c3 -5 -1 -10 -10 -10 -9 0 -13 5 -10 10 3 6 8 10 10 10 2 0 7 -4 10
-10z m-1465 -86 c0 -9 -7 -14 -17 -12 -25 5 -28 28 -4 28 12 0 21 -6 21 -16z
m-510 -44 c0 -5 -4 -10 -10 -10 -5 0 -10 5 -10 10 0 6 5 10 10 10 6 0 10 -4
10 -10z m-52 -21 c-2 -6 -8 -10 -13 -10 -5 0 -11 4 -13 10 -2 6 4 11 13 11 9
0 15 -5 13 -11z m370 -60 c-2 -6 -8 -10 -13 -10 -5 0 -11 4 -13 10 -2 6 4 11
13 11 9 0 15 -5 13 -11z m2512 -29 c0 -5 -4 -10 -10 -10 -5 0 -10 5 -10 10 0
6 5 10 10 10 6 0 10 -4 10 -10z m-4640 -140 c0 -5 -2 -10 -4 -10 -3 0 -8 5
-11 10 -3 6 -1 10 4 10 6 0 11 -4 11 -10z m1810 -24 c0 -3 -4 -8 -10 -11 -5
-3 -10 -1 -10 4 0 6 5 11 10 11 6 0 10 -2 10 -4z m-2014 -117 c3 -6 1 -16 -5
-22 -9 -9 -14 -8 -21 3 -9 15 -4 30 10 30 5 0 12 -5 16 -11z m2494 -19 c0 -13
-7 -20 -20 -20 -13 0 -20 7 -20 20 0 13 7 20 20 20 13 0 20 -7 20 -20z m-1120
-30 c0 -5 -2 -10 -4 -10 -3 0 -8 5 -11 10 -3 6 -1 10 4 10 6 0 11 -4 11 -10z
m928 -58 c4 -28 -24 -41 -44 -20 -20 20 -7 50 20 46 13 -2 22 -12 24 -26z
m3212 18 c0 -5 -7 -10 -15 -10 -8 0 -15 5 -15 10 0 6 7 10 15 10 8 0 15 -4 15
-10z m-765 -90 c4 -6 1 -17 -5 -26 -10 -11 -16 -12 -26 -3 -11 9 -11 15 -3 25
14 17 25 18 34 4z m-2130 -20 c3 -5 1 -10 -4 -10 -6 0 -11 5 -11 10 0 6 2 10
4 10 3 0 8 -4 11 -10z m-435 -20 c0 -5 -4 -10 -10 -10 -5 0 -10 5 -10 10 0 6
5 10 10 10 6 0 10 -4 10 -10z m200 -80 c0 -5 -4 -10 -10 -10 -5 0 -10 5 -10
10 0 6 5 10 10 10 6 0 10 -4 10 -10z m248 -22 c-2 -15 -10 -23 -23 -23 -13 0
-21 8 -23 23 -3 18 1 22 23 22 22 0 26 -4 23 -22z m-1188 -48 c0 -5 -4 -10 -9
-10 -6 0 -13 5 -16 10 -3 6 1 10 9 10 9 0 16 -4 16 -10z m2668 -13 c2 -10 -3
-17 -12 -17 -18 0 -29 16 -21 31 9 14 29 6 33 -14z m1472 -32 c0 -8 -4 -15
-10 -15 -5 0 -10 7 -10 15 0 8 5 15 10 15 6 0 10 -7 10 -15z m-4270 -141 c0
-9 -5 -14 -12 -12 -18 6 -21 28 -4 28 9 0 16 -7 16 -16z m2840 6 c0 -5 -4 -10
-10 -10 -5 0 -10 5 -10 10 0 6 5 10 10 10 6 0 10 -4 10 -10z m-522 -121 c-2
-6 -8 -10 -13 -10 -5 0 -11 4 -13 10 -2 6 4 11 13 11 9 0 15 -5 13 -11z m-948
-9 c0 -5 -4 -10 -10 -10 -5 0 -10 5 -10 10 0 6 5 10 10 10 6 0 10 -4 10 -10z
m-2554 -51 c7 -12 -15 -31 -28 -23 -4 3 -8 12 -8 20 0 17 26 19 36 3z m989 -9
c3 -5 -1 -10 -10 -10 -9 0 -13 5 -10 10 3 6 8 10 10 10 2 0 7 -4 10 -10z
m1025 -10 c0 -5 -4 -10 -10 -10 -5 0 -10 5 -10 10 0 6 5 10 10 10 6 0 10 -4
10 -10z m230 -10 c0 -5 -4 -10 -10 -10 -5 0 -10 5 -10 10 0 6 5 10 10 10 6 0
10 -4 10 -10z m-1090 -56 c0 -8 -7 -14 -15 -14 -15 0 -21 21 -9 33 10 9 24 -2
24 -19z m-110 6 c0 -5 -4 -10 -10 -10 -5 0 -10 5 -10 10 0 6 5 10 10 10 6 0
10 -4 10 -10z m2910 -5 c0 -8 -7 -15 -15 -15 -16 0 -20 12 -8 23 11 12 23 8
23 -8z m-1810 -56 c0 -5 -7 -9 -15 -9 -15 0 -20 12 -9 23 8 8 24 -1 24 -14z
m240 1 c0 -13 -7 -20 -20 -20 -13 0 -20 7 -20 20 0 13 7 20 20 20 13 0 20 -7
20 -20z m214 -71 c-3 -5 -10 -7 -15 -3 -5 3 -7 10 -3 15 3 5 10 7 15 3 5 -3 7
-10 3 -15z m1876 -79 c0 -5 -7 -10 -15 -10 -8 0 -15 5 -15 10 0 6 7 10 15 10
8 0 15 -4 15 -10z m-2790 -60 c0 -5 -4 -10 -10 -10 -5 0 -10 5 -10 10 0 6 5
10 10 10 6 0 10 -4 10 -10z m-40 -40 c0 -5 -2 -10 -4 -10 -3 0 -8 5 -11 10 -3
6 -1 10 4 10 6 0 11 -4 11 -10z m1950 -150 c0 -5 -4 -10 -10 -10 -5 0 -10 5
-10 10 0 6 5 10 10 10 6 0 10 -4 10 -10z m-670 -10 c0 -5 -5 -10 -11 -10 -5 0
-7 5 -4 10 3 6 8 10 11 10 2 0 4 -4 4 -10z m-2980 -20 c0 -5 -4 -10 -10 -10
-5 0 -10 5 -10 10 0 6 5 10 10 10 6 0 10 -4 10 -10z m4670 0 c0 -5 -4 -10 -10
-10 -5 0 -10 5 -10 10 0 6 5 10 10 10 6 0 10 -4 10 -10z m-1360 -4 c0 -11 -19
-15 -25 -6 -3 5 1 10 9 10 9 0 16 -2 16 -4z m-990 -26 c0 -5 -2 -10 -4 -10 -3
0 -8 5 -11 10 -3 6 -1 10 4 10 6 0 11 -4 11 -10z m2481 -3 c-1 -12 -15 -9 -19
4 -3 6 1 10 8 8 6 -3 11 -8 11 -12z m-2031 -37 c0 -5 -5 -10 -11 -10 -5 0 -7
5 -4 10 3 6 8 10 11 10 2 0 4 -4 4 -10z m55 0 c3 -5 -1 -10 -10 -10 -9 0 -13
5 -10 10 3 6 8 10 10 10 2 0 7 -4 10 -10z m-308 -67 c-11 -10 -26 8 -20 23 5
15 7 14 15 -1 6 -9 7 -19 5 -22z m2291 26 c-2 -6 -8 -10 -13 -10 -5 0 -11 4
-13 10 -2 6 4 11 13 11 9 0 15 -5 13 -11z m-2458 -25 c0 -8 7 -14 15 -14 8 0
15 -4 15 -10 0 -5 -7 -10 -15 -10 -8 0 -15 5 -15 11 0 6 -7 8 -15 5 -20 -7
-33 23 -14 34 16 11 29 4 29 -16z m610 -14 c0 -5 -4 -10 -10 -10 -5 0 -10 5
-10 10 0 6 5 10 10 10 6 0 10 -4 10 -10z m-2610 -20 c0 -5 -4 -10 -10 -10 -5
0 -10 5 -10 10 0 6 5 10 10 10 6 0 10 -4 10 -10z m920 6 c0 -11 -19 -15 -25
-6 -3 5 1 10 9 10 9 0 16 -2 16 -4z m1150 -22 c0 -9 -5 -14 -12 -12 -18 6 -21
28 -4 28 9 0 16 -7 16 -16z m-950 -14 c0 -5 -4 -10 -10 -10 -5 0 -10 5 -10 10
0 6 5 10 10 10 6 0 10 -4 10 -10z m50 0 c0 -5 -5 -10 -11 -10 -5 0 -7 5 -4 10
3 6 8 10 11 10 2 0 4 -4 4 -10z m597 4 c-3 -3 -12 -4 -19 -1 -8 3 -5 6 6 6 11
1 17 -2 13 -5z m-962 -14 c3 -5 1 -10 -4 -10 -6 0 -11 5 -11 10 0 6 2 10 4 10
3 0 8 -4 11 -10z m669 -31 c-3 -5 -10 -7 -15 -3 -5 3 -7 10 -3 15 3 5 10 7 15
3 5 -3 7 -10 3 -15z m1937 -34 c-1 -15 -24 -12 -29 3 -3 9 2 13 12 10 10 -1
17 -7 17 -13z m-951 -5 c0 -5 -4 -10 -10 -10 -5 0 -10 5 -10 10 0 6 5 10 10
10 6 0 10 -4 10 -10z m3160 -80 c0 -5 -4 -10 -10 -10 -5 0 -10 5 -10 10 0 6 5
10 10 10 6 0 10 -4 10 -10z m-3430 -10 c0 -5 -4 -10 -10 -10 -5 0 -10 5 -10
10 0 6 5 10 10 10 6 0 10 -4 10 -10z m-660 -20 c0 -5 -4 -10 -10 -10 -5 0 -10
5 -10 10 0 6 5 10 10 10 6 0 10 -4 10 -10z m1548 -64 c4 -21 -14 -37 -35 -29
-14 5 -18 35 -6 47 12 12 38 1 41 -18z m-1812 -13 c-3 -8 -6 -19 -6 -24 0 -5
-7 -9 -15 -9 -8 0 -15 5 -15 10 0 25 -40 -12 -41 -38 0 -24 -1 -25 -8 -7 -5
12 -3 30 6 48 7 15 11 27 8 27 -4 0 -4 4 -1 8 3 4 21 6 41 4 27 -3 35 -8 31
-19z m-432 -58 c3 -9 0 -15 -9 -15 -16 0 -27 14 -18 24 10 10 21 7 27 -9z
m674 -10 c-4 -17 0 -26 13 -30 9 -3 23 -13 31 -22 12 -15 11 -15 -9 -4 -13 6
-23 8 -23 3 0 -4 19 -17 43 -27 63 -28 88 -65 43 -65 -13 0 -26 -4 -28 -9 -2
-6 -23 -6 -53 0 -27 6 -67 8 -87 4 -23 -3 -38 -1 -38 5 0 5 -11 10 -25 10 -18
0 -23 -4 -19 -15 7 -17 -31 -22 -41 -5 -3 6 -15 10 -26 10 -10 0 -19 4 -19 8
0 4 -9 8 -20 9 -11 1 -20 -2 -20 -7 0 -5 -12 -10 -27 -12 -24 -3 -28 -8 -30
-36 -1 -18 -6 -39 -12 -46 -6 -7 -8 -16 -3 -20 4 -4 -1 -12 -11 -17 -9 -6 -17
-17 -17 -25 0 -8 -10 -28 -22 -44 -24 -33 -31 -116 -11 -128 7 -4 14 -19 15
-32 3 -22 -1 -25 -29 -25 -18 -1 -33 0 -33 1 0 1 3 10 6 18 6 15 8 15 19 -1
19 -25 28 -11 14 21 -7 15 -18 25 -25 22 -8 -3 -20 1 -27 9 -15 14 -57 10 -57
-6 0 -5 -17 -9 -37 -9 -43 0 -57 -7 -66 -32 -8 -22 -30 -23 -47 -4 -16 21 -40
9 -56 -28 -11 -25 -13 -27 -14 -10 0 15 -8 23 -25 26 -14 3 -25 1 -25 -5 0 -5
-7 -4 -15 3 -8 7 -28 10 -45 8 -16 -3 -28 -2 -25 0 3 3 0 11 -6 19 -9 10 -8
13 4 13 10 0 14 6 11 15 -5 11 1 15 25 15 18 0 34 6 37 14 3 8 12 12 19 10 16
-7 53 28 47 44 -2 7 1 12 7 12 6 0 9 6 7 13 -1 6 -1 9 1 4 3 -4 9 -5 14 -1 5
3 9 1 9 -4 0 -6 14 -15 31 -21 25 -9 34 -7 48 7 29 27 35 59 14 65 -15 4 -14
5 4 6 12 0 28 -5 36 -13 17 -18 40 -5 31 17 -4 11 0 19 10 23 11 4 15 13 11
28 -4 14 -3 17 3 8 5 -7 8 -30 7 -50 -1 -23 5 -41 14 -49 14 -10 12 -12 -12
-18 -17 -5 -27 -14 -27 -26 0 -10 5 -19 10 -19 6 0 10 5 10 11 0 5 15 16 34
24 35 15 49 29 52 53 2 8 9 21 17 30 19 22 40 89 32 102 -3 5 1 22 9 38 8 16
12 39 9 51 -4 17 -2 20 11 15 10 -4 16 -1 16 7 0 7 3 9 7 6 3 -4 15 5 25 20
10 16 18 22 18 14 0 -8 -8 -23 -17 -33 -15 -17 -15 -20 -3 -28 21 -14 30 -12
30 4 0 9 10 13 25 12 28 -1 33 -11 10 -20 -28 -10 -16 -28 15 -24 16 2 31 0
33 -6 3 -8 11 -7 25 1 13 8 22 9 24 2 2 -7 13 -7 33 1 20 8 25 14 17 19 -7 4
-12 21 -10 36 2 22 -3 32 -20 40 -40 21 -38 28 3 10 22 -9 49 -19 60 -22 18
-4 18 -3 3 7 -24 15 -23 29 2 23 12 -3 22 1 26 11 10 27 37 20 32 -9z m3189
-101 c-9 -9 -28 6 -21 18 4 6 10 6 17 -1 6 -6 8 -13 4 -17z m-2617 6 c0 -5 -2
-10 -4 -10 -3 0 -8 5 -11 10 -3 6 -1 10 4 10 6 0 11 -4 11 -10z m2768 -2 c-6
-18 -28 -21 -28 -4 0 9 7 16 16 16 9 0 14 -5 12 -12z m-3418 -88 c0 -5 -4 -10
-10 -10 -5 0 -10 5 -10 10 0 6 5 10 10 10 6 0 10 -4 10 -10z m280 -20 c0 -21
-15 -27 -25 -10 -3 6 0 10 7 11 7 0 4 4 -7 9 -19 8 -19 9 3 9 16 1 22 -5 22
-19z m-1600 6 c0 -11 -19 -15 -25 -6 -3 5 1 10 9 10 9 0 16 -2 16 -4z m193
-46 c27 -9 36 -33 17 -45 -5 -3 -6 -13 -3 -21 3 -9 -13 -2 -40 18 -35 25 -44
38 -40 53 5 19 4 19 -9 2 -9 -12 -23 -17 -39 -15 -23 5 -23 5 8 17 18 7 31 17
28 22 -3 5 7 2 22 -6 15 -9 40 -20 56 -25z m2617 30 c0 -5 -7 -10 -15 -10 -8
0 -15 5 -15 10 0 6 7 10 15 10 8 0 15 -4 15 -10z m-1959 -30 c6 0 7 -5 3 -12
-5 -8 -11 -6 -20 7 -7 10 -10 23 -6 29 4 7 8 5 10 -6 2 -10 8 -18 13 -18z
m4386 4 c9 -23 -13 -40 -32 -24 -12 10 -13 16 -4 26 15 18 28 18 36 -2z
m-4422 -32 c-8 -8 -25 10 -19 20 4 6 9 5 15 -3 4 -7 6 -15 4 -17z m795 -10 c0
-9 7 -11 21 -7 18 6 20 4 15 -13 -4 -11 -2 -23 4 -27 5 -3 10 -1 10 6 0 8 4 8
15 -1 9 -7 13 -20 10 -27 -3 -10 1 -13 13 -11 21 4 42 -31 31 -54 -7 -13 -5
-15 12 -11 12 4 25 -1 34 -13 8 -11 15 -15 15 -10 0 5 11 -1 25 -14 22 -21 25
-22 25 -5 0 17 1 17 20 0 31 -28 59 -77 75 -133 16 -51 37 -78 54 -68 5 4 12
2 16 -4 3 -5 15 -10 27 -10 17 0 18 -3 8 -14 -14 -18 -9 -62 8 -58 6 1 12 -3
12 -9 0 -14 26 -39 40 -39 7 0 3 -8 -9 -17 l-21 -18 24 -66 c13 -36 26 -71 29
-76 3 -5 0 -10 -8 -10 -8 0 -15 4 -15 9 0 4 -4 8 -10 8 -5 0 -10 -8 -10 -17 0
-14 -3 -13 -23 5 -13 12 -31 22 -40 22 -14 0 -16 6 -11 26 6 24 5 25 -16 14
-26 -14 -33 -8 -36 30 -1 16 -10 44 -19 62 -42 80 -55 108 -55 119 0 8 -3 9
-13 0 -19 -15 -27 -3 -17 25 9 22 8 24 -10 14 -16 -9 -18 -8 -14 5 4 10 0 15
-11 15 -10 0 -13 -4 -8 -12 13 -22 -49 23 -75 53 -33 40 -51 38 -45 -6 4 -31
2 -35 -18 -35 -18 0 -20 -3 -11 -12 14 -14 -2 -38 -24 -38 -18 0 -18 2 11 62
30 61 31 80 8 100 -19 15 -72 41 -87 42 -5 1 -11 7 -14 15 -3 8 0 11 7 7 17
-11 13 20 -4 34 -9 8 -13 21 -9 36 7 26 -12 84 -27 84 -5 0 -9 7 -9 15 0 21
17 19 30 -5 6 -11 15 -20 20 -20 14 0 12 64 -2 78 -9 9 -4 9 20 0 18 -7 32
-18 32 -26z m590 7 c0 -5 -7 -9 -15 -9 -15 0 -20 12 -9 23 8 8 24 -1 24 -14z
m2628 -20 c-2 -6 -8 -10 -13 -10 -5 0 -11 4 -13 10 -2 6 4 11 13 11 9 0 15 -5
13 -11z m-2348 -40 c0 -5 -4 -9 -10 -9 -5 0 -10 7 -10 16 0 8 5 12 10 9 6 -3
10 -10 10 -16z m-976 -24 c-4 -8 -10 -15 -15 -15 -5 0 -9 7 -9 15 0 8 7 15 15
15 9 0 12 -6 9 -15z m3646 5 c0 -5 -4 -10 -10 -10 -5 0 -10 5 -10 10 0 6 5 10
10 10 6 0 10 -4 10 -10z m-3362 -29 c3 -8 -1 -12 -9 -9 -7 2 -15 10 -17 17 -3
8 1 12 9 9 7 -2 15 -10 17 -17z m-558 -45 c0 -3 -4 -8 -10 -11 -5 -3 -10 -1
-10 4 0 6 5 11 10 11 6 0 10 -2 10 -4z m289 -56 c1 -13 0 -13 -9 0 -5 8 -9 26
-9 40 l1 25 8 -25 c4 -14 8 -32 9 -40z m681 50 c0 -5 -7 -10 -16 -10 -8 0 -12
5 -9 10 3 6 10 10 16 10 5 0 9 -4 9 -10z m-713 -52 c-3 -8 -6 -5 -6 6 -1 11 2
17 5 13 3 -3 4 -12 1 -19z m3593 2 c0 -5 -4 -10 -10 -10 -5 0 -10 5 -10 10 0
6 5 10 10 10 6 0 10 -4 10 -10z m-4122 -55 c1 -1 -6 -5 -17 -8 -11 -3 -28 1
-38 9 -16 12 -14 13 17 7 19 -3 36 -7 38 -8z m81 -6 c-22 -14 -33 -10 -19 6 7
8 17 12 22 9 6 -4 5 -10 -3 -15z m-413 -6 c-10 -11 -37 -12 -30 -2 3 5 12 9
21 9 9 0 13 -3 9 -7z m279 -23 c-3 -5 -13 -10 -21 -10 -8 0 -14 5 -14 10 0 6
9 10 21 10 11 0 17 -4 14 -10z m-775 -4 c0 -3 -4 -8 -10 -11 -5 -3 -10 -1 -10
4 0 6 5 11 10 11 6 0 10 -2 10 -4z m3790 0 c0 -3 -4 -8 -10 -11 -5 -3 -10 -1
-10 4 0 6 5 11 10 11 6 0 10 -2 10 -4z m-3285 -35 c-3 -6 -11 -11 -17 -11 -6
0 -6 6 2 15 14 17 26 13 15 -4z m985 2 c0 -14 -19 -38 -25 -32 -8 8 5 39 16
39 5 0 9 -3 9 -7z m-1020 -30 c0 -9 -3 -13 -7 -10 -3 4 -17 0 -30 -8 -28 -18
-33 0 -5 21 24 18 42 17 42 -3z m828 -84 c-12 -11 -15 -20 -8 -24 16 -10 12
-25 -7 -18 -14 5 -15 1 -11 -35 5 -30 2 -44 -11 -55 -28 -24 -49 -27 -54 -9
-4 13 -5 12 -6 -4 0 -11 -14 -33 -31 -49 -16 -16 -30 -35 -30 -42 0 -7 -8 -13
-18 -13 -25 0 -84 -30 -98 -49 -10 -13 -15 -12 -37 6 l-25 20 29 34 c16 19 29
29 29 23 0 -7 7 -15 16 -18 8 -3 13 -2 10 3 -3 5 1 12 10 15 8 3 12 11 8 18
-5 8 0 9 17 5 25 -7 89 34 89 57 0 16 44 58 53 50 12 -12 35 16 42 52 3 20 11
47 17 60 10 22 12 22 24 7 10 -15 9 -20 -8 -34z m348 9 c0 -24 -1 -35 -4 -25
-3 13 -7 15 -16 8 -10 -8 -12 -5 -10 12 1 12 3 28 3 35 1 6 7 12 14 12 8 0 13
-15 13 -42z m2397 7 c-3 -8 -9 -15 -14 -15 -10 0 -12 24 -3 33 11 11 24 -3 17
-18z m-2035 -14 c11 -7 11 -9 -1 -14 -16 -6 -27 0 -27 15 0 10 11 10 28 -1z
m-445 -58 c-7 -2 -19 -2 -25 0 -7 3 -2 5 12 5 14 0 19 -2 13 -5z m-1173 -29
c0 -16 -16 -19 -25 -4 -8 13 4 32 16 25 5 -4 9 -13 9 -21z m3190 -4 c0 -5 -4
-10 -10 -10 -5 0 -10 5 -10 10 0 6 5 10 10 10 6 0 10 -4 10 -10z m-1960 -10
c0 -5 -4 -10 -9 -10 -6 0 -13 5 -16 10 -3 6 1 10 9 10 9 0 16 -4 16 -10z
m-1705 -10 c3 -5 1 -10 -4 -10 -6 0 -11 5 -11 10 0 6 2 10 4 10 3 0 8 -4 11
-10z m3630 -29 c3 -5 1 -12 -5 -16 -5 -3 -10 1 -10 9 0 18 6 21 15 7z m-1915
-11 c0 -5 -2 -10 -4 -10 -3 0 -8 5 -11 10 -3 6 -1 10 4 10 6 0 11 -4 11 -10z
m1100 -20 c0 -5 -4 -10 -10 -10 -5 0 -10 5 -10 10 0 6 5 10 10 10 6 0 10 -4
10 -10z m1207 -6 c-3 -3 -12 -4 -19 -1 -8 3 -5 6 6 6 11 1 17 -2 13 -5z
m-3057 -19 c0 -11 -11 -15 -42 -15 -42 0 -42 1 -18 14 34 19 60 19 60 1z m70
-10 c0 -8 -7 -15 -15 -15 -13 0 -14 3 -3 15 16 18 18 18 18 0z m-1455 -15 c-3
-5 -14 -10 -23 -10 -15 0 -15 2 -2 10 20 13 33 13 25 0z m1175 -5 c0 -8 -9
-15 -20 -15 -17 0 -19 2 -8 15 17 19 28 19 28 0z m-1091 1 c-2 -2 -22 -6 -44
-9 -28 -5 -34 -4 -20 3 19 8 73 14 64 6z m1279 -13 c-10 -2 -28 -2 -40 0 -13
2 -5 4 17 4 22 1 32 -1 23 -4z m95 0 c-7 -2 -19 -2 -25 0 -7 3 -2 5 12 5 14 0
19 -2 13 -5z m3577 -153 c0 -5 -2 -10 -4 -10 -3 0 -8 5 -11 10 -3 6 -1 10 4
10 6 0 11 -4 11 -10z m-1270 -10 c0 -5 -4 -10 -10 -10 -5 0 -10 5 -10 10 0 6
5 10 10 10 6 0 10 -4 10 -10z m-3779 -37 c23 -23 3 -30 -24 -9 -25 20 -26 23
-7 21 11 -1 25 -6 31 -12z m3139 7 c0 -5 -4 -10 -10 -10 -5 0 -10 5 -10 10 0
6 5 10 10 10 6 0 10 -4 10 -10z m1990 -37 c0 -17 -19 -35 -29 -29 -18 12 -12
36 9 36 11 0 20 -3 20 -7z m-5230 -23 c0 -10 -26 -20 -34 -13 -11 12 -6 19 14
20 11 1 20 -2 20 -7z m5030 -10 c0 -5 -4 -10 -10 -10 -5 0 -10 5 -10 10 0 6 5
10 10 10 6 0 10 -4 10 -10z m-4550 -54 c0 -3 -4 -8 -10 -11 -5 -3 -10 -1 -10
4 0 6 5 11 10 11 6 0 10 -2 10 -4z m4760 -16 c0 -5 -5 -10 -11 -10 -5 0 -7 5
-4 10 3 6 8 10 11 10 2 0 4 -4 4 -10z m-2300 -80 c0 -5 -5 -10 -11 -10 -5 0
-7 5 -4 10 3 6 8 10 11 10 2 0 4 -4 4 -10z m-1805 -60 c3 -5 1 -10 -4 -10 -6
0 -11 5 -11 10 0 6 2 10 4 10 3 0 8 -4 11 -10z m4410 -10 c3 -5 1 -10 -4 -10
-6 0 -11 5 -11 10 0 6 2 10 4 10 3 0 8 -4 11 -10z m-4947 -21 c-2 -6 -8 -10
-13 -10 -5 0 -11 4 -13 10 -2 6 4 11 13 11 9 0 15 -5 13 -11z m476 -25 c-8
-11 -12 -30 -8 -40 4 -14 3 -15 -4 -6 -5 8 -13 13 -18 12 -15 -3 -16 20 0 26
8 3 12 12 10 19 -4 9 1 13 14 12 18 -1 18 -3 6 -23z m262 -18 c1 -14 -2 -24
-7 -21 -5 4 -12 -1 -15 -9 -3 -9 -10 -13 -16 -10 -5 3 -12 -3 -15 -15 -6 -24
-23 -28 -23 -6 0 8 4 15 8 15 9 0 8 41 -1 57 -8 12 16 21 47 18 13 -1 20 -11
22 -29z m3869 4 c-5 -8 -11 -8 -17 -2 -6 6 -7 16 -3 22 5 8 11 8 17 2 6 -6 7
-16 3 -22z m-3965 0 c13 -11 20 -23 15 -28 -4 -4 -10 -1 -12 6 -3 6 -13 12
-24 12 -10 0 -19 7 -19 15 0 20 13 19 40 -5z m-95 -26 c18 -38 16 -54 -5 -29
-7 8 -9 15 -4 15 4 0 -3 11 -16 25 -18 19 -20 25 -8 25 9 0 23 -16 33 -36z
m2965 16 c0 -5 -7 -10 -15 -10 -8 0 -15 5 -15 10 0 6 7 10 15 10 8 0 15 -4 15
-10z m-3110 -10 c0 -5 -4 -10 -10 -10 -5 0 -10 5 -10 10 0 6 5 10 10 10 6 0
10 -4 10 -10z m200 -20 c0 -5 -4 -10 -9 -10 -6 0 -13 5 -16 10 -3 6 1 10 9 10
9 0 16 -4 16 -10z m-103 -22 c-3 -8 -6 -5 -6 6 -1 11 2 17 5 13 3 -3 4 -12 1
-19z m116 -13 c-22 -17 -30 -11 -13 10 7 8 17 12 22 9 5 -3 1 -12 -9 -19z
m4915 3 c-6 -18 -28 -21 -28 -4 0 9 7 16 16 16 9 0 14 -5 12 -12z m-4530 -9
c-2 -6 -8 -10 -13 -10 -5 0 -11 4 -13 10 -2 6 4 11 13 11 9 0 15 -5 13 -11z
m867 2 c3 -5 1 -12 -5 -16 -5 -3 -10 1 -10 9 0 18 6 21 15 7z m345 -21 c0 -5
-4 -10 -10 -10 -5 0 -10 5 -10 10 0 6 5 10 10 10 6 0 10 -4 10 -10z m-1490
-10 c0 -5 -4 -10 -10 -10 -5 0 -10 5 -10 10 0 6 5 10 10 10 6 0 10 -4 10 -10z
m600 -34 c0 -2 -8 -10 -17 -17 -16 -13 -17 -12 -4 4 13 16 21 21 21 13z m-740
-36 c0 -5 -5 -10 -11 -10 -5 0 -7 5 -4 10 3 6 8 10 11 10 2 0 4 -4 4 -10z
m4730 -55 c0 -8 -7 -15 -15 -15 -8 0 -15 7 -15 15 0 8 7 15 15 15 8 0 15 -7
15 -15z m-5220 -5 c0 -5 -4 -10 -10 -10 -5 0 -10 5 -10 10 0 6 5 10 10 10 6 0
10 -4 10 -10z m1450 -70 c0 -5 -4 -10 -10 -10 -5 0 -10 5 -10 10 0 6 5 10 10
10 6 0 10 -4 10 -10z m685 -20 c3 -5 1 -10 -4 -10 -6 0 -11 5 -11 10 0 6 2 10
4 10 3 0 8 -4 11 -10z m-2135 -40 c0 -5 -2 -10 -4 -10 -3 0 -8 5 -11 10 -3 6
-1 10 4 10 6 0 11 -4 11 -10z m642 -22 c-9 -9 -12 -7 -12 12 0 19 3 21 12 12
9 -9 9 -15 0 -24z m-1162 6 c0 -8 -5 -12 -10 -9 -6 4 -8 11 -5 16 9 14 15 11
15 -7z m800 6 c0 -5 -5 -10 -11 -10 -5 0 -7 5 -4 10 3 6 8 10 11 10 2 0 4 -4
4 -10z m430 0 c0 -5 -2 -10 -4 -10 -3 0 -8 5 -11 10 -3 6 -1 10 4 10 6 0 11
-4 11 -10z m-750 -15 c7 -8 16 -12 21 -9 11 7 11 -17 0 -35 -6 -10 -13 -11
-27 -3 -11 6 -27 7 -42 1 -37 -14 -39 -2 -3 18 17 10 29 24 26 31 -6 17 10 15
25 -3z m965 -25 c3 -5 2 -10 -4 -10 -5 0 -13 5 -16 10 -3 6 -2 10 4 10 5 0 13
-4 16 -10z m-71 -32 c-6 -21 -5 -22 11 -8 17 14 18 13 12 -3 -4 -10 -7 -23 -7
-28 0 -4 -7 -6 -15 -3 -21 8 -30 45 -14 55 20 13 21 11 13 -13z m86 2 c11 -7
8 -8 -13 -6 -15 1 -30 6 -34 9 -10 11 30 8 47 -3z m-880 -95 c0 -8 -7 -15 -15
-15 -8 0 -15 7 -15 15 0 8 7 15 15 15 8 0 15 -7 15 -15z m3300 -10 c0 -8 -7
-15 -15 -15 -8 0 -15 7 -15 15 0 8 7 15 15 15 8 0 15 -7 15 -15z m-3576 -11
c5 -12 2 -15 -10 -10 -8 3 -18 6 -20 6 -3 0 -2 5 1 10 9 15 22 12 29 -6z m926
-74 c0 -5 -4 -10 -10 -10 -5 0 -10 5 -10 10 0 6 5 10 10 10 6 0 10 -4 10 -10z
m350 -54 c0 -3 -4 -8 -10 -11 -5 -3 -10 -1 -10 4 0 6 5 11 10 11 6 0 10 -2 10
-4z m2821 -29 c-13 -13 -26 -3 -16 12 3 6 11 8 17 5 6 -4 6 -10 -1 -17z
m-3551 3 c0 -5 -4 -10 -10 -10 -5 0 -10 5 -10 10 0 6 5 10 10 10 6 0 10 -4 10
-10z m2805 -9 c3 -5 1 -12 -5 -16 -5 -3 -10 1 -10 9 0 18 6 21 15 7z m905
-137 c0 -8 -4 -12 -10 -9 -5 3 -10 10 -10 16 0 5 5 9 10 9 6 0 10 -7 10 -16z
m850 -10 c0 -8 -4 -12 -10 -9 -5 3 -10 10 -10 16 0 5 5 9 10 9 6 0 10 -7 10
-16z m-1775 -84 c3 -5 1 -10 -4 -10 -6 0 -11 5 -11 10 0 6 2 10 4 10 3 0 8 -4
11 -10z m-2387 -31 c-2 -6 -8 -10 -13 -10 -5 0 -11 4 -13 10 -2 6 4 11 13 11
9 0 15 -5 13 -11z m312 -25 c0 -8 -5 -12 -10 -9 -6 4 -8 11 -5 16 9 14 15 11
15 -7z m2300 6 c0 -5 -4 -10 -10 -10 -5 0 -10 5 -10 10 0 6 5 10 10 10 6 0 10
-4 10 -10z m1905 -160 c-3 -5 -10 -10 -16 -10 -5 0 -9 5 -9 10 0 6 7 10 16 10
8 0 12 -4 9 -10z m-4931 -81 c-3 -5 -10 -7 -15 -3 -5 3 -7 10 -3 15 3 5 10 7
15 3 5 -3 7 -10 3 -15z m-949 -9 c0 -22 -29 -18 -33 3 -3 14 1 18 15 15 10 -2
18 -10 18 -18z m430 -20 c3 -5 -1 -10 -10 -10 -9 0 -13 5 -10 10 3 6 8 10 10
10 2 0 7 -4 10 -10z m4990 -140 c-5 -8 -11 -8 -17 -2 -6 6 -7 16 -3 22 5 8 11
8 17 2 6 -6 7 -16 3 -22z m-2885 11 c0 -6 -4 -13 -10 -16 -5 -3 -10 1 -10 9 0
9 5 16 10 16 6 0 10 -4 10 -9z m-2505 -21 c3 -5 1 -10 -4 -10 -6 0 -11 5 -11
10 0 6 2 10 4 10 3 0 8 -4 11 -10z m3455 -29 c0 -6 -4 -13 -10 -16 -5 -3 -10
1 -10 9 0 9 5 16 10 16 6 0 10 -4 10 -9z m1129 -27 c10 -9 -35 -3 -49 6 -11 8
-7 9 15 4 17 -4 32 -8 34 -10z m-99 -14 c-27 -21 -40 -25 -40 -12 0 15 24 32
45 32 19 0 18 -2 -5 -20z m-410 0 c0 -5 -4 -10 -10 -10 -5 0 -10 5 -10 10 0 6
5 10 10 10 6 0 10 -4 10 -10z m1180 -110 c8 -5 11 -10 5 -10 -5 0 -17 5 -25
10 -8 5 -10 10 -5 10 6 0 17 -5 25 -10z m475 -10 c3 -5 -1 -10 -9 -10 -8 0
-18 5 -21 10 -3 6 1 10 9 10 8 0 18 -4 21 -10z m-55 -10 c0 -5 13 -10 30 -10
22 0 28 -4 24 -15 -9 -22 -61 -19 -74 4 -13 26 -13 31 5 31 8 0 15 -4 15 -10z
m170 -45 c0 -8 -4 -15 -10 -15 -5 0 -10 7 -10 15 0 8 5 15 10 15 6 0 10 -7 10
-15z m-206 -17 c-5 -7 -1 -9 13 -6 11 3 28 -1 39 -10 18 -14 18 -14 0 -8 -15
5 -17 2 -13 -13 4 -18 3 -18 -24 -2 -28 16 -36 31 -22 44 10 11 15 8 7 -5z
m-3514 -84 c0 -8 -7 -14 -15 -14 -15 0 -21 21 -9 33 10 9 24 -2 24 -19z m3575
-14 c3 -5 -1 -10 -9 -10 -9 0 -16 5 -16 10 0 6 4 10 9 10 6 0 13 -4 16 -10z
m-3115 -19 c0 -12 -28 -22 -34 -12 -3 5 -3 11 1 15 9 9 33 7 33 -3z m170 -212
c0 -6 -4 -7 -10 -4 -5 3 -10 11 -10 16 0 6 5 7 10 4 6 -3 10 -11 10 -16z
m3220 1 c0 -5 -5 -10 -11 -10 -5 0 -7 5 -4 10 3 6 8 10 11 10 2 0 4 -4 4 -10z
m-5690 -94 c0 -3 -4 -8 -10 -11 -5 -3 -10 -1 -10 4 0 6 5 11 10 11 6 0 10 -2
10 -4z m1445 -126 c3 -5 1 -10 -4 -10 -6 0 -11 5 -11 10 0 6 2 10 4 10 3 0 8
-4 11 -10z m4385 -40 c0 -5 -2 -10 -4 -10 -3 0 -8 5 -11 10 -3 6 -1 10 4 10 6
0 11 -4 11 -10z m-2620 -80 c0 -5 -5 -10 -11 -10 -5 0 -7 5 -4 10 3 6 8 10 11
10 2 0 4 -4 4 -10z m150 -10 c0 -5 -4 -10 -10 -10 -5 0 -10 5 -10 10 0 6 5 10
10 10 6 0 10 -4 10 -10z m-1640 -130 c0 -5 -5 -10 -11 -10 -5 0 -7 5 -4 10 3
6 8 10 11 10 2 0 4 -4 4 -10z m3902 -135 c0 -5 -5 -11 -11 -13 -6 -2 -11 4
-11 13 0 9 5 15 11 13 6 -2 11 -8 11 -13z m-1662 -175 c0 -5 -5 -10 -11 -10
-5 0 -7 5 -4 10 3 6 8 10 11 10 2 0 4 -4 4 -10z m-350 -110 c0 -5 -4 -10 -10
-10 -5 0 -10 5 -10 10 0 6 5 10 10 10 6 0 10 -4 10 -10z m-136 -161 c-3 -5
-10 -7 -15 -3 -5 3 -7 10 -3 15 3 5 10 7 15 3 5 -3 7 -10 3 -15z m399 -7 c-3
-12 -9 -22 -14 -22 -12 0 -11 7 3 30 15 24 19 21 11 -8z m-329 -43 c-11 -18
-32 -9 -27 11 4 16 8 18 19 9 8 -6 11 -15 8 -20z m439 -6 c4 -19 2 -33 -3 -33
-6 0 -10 17 -10 37 0 43 5 41 13 -4z m-1048 17 c3 -5 -1 -10 -10 -10 -9 0 -13
5 -10 10 3 6 8 10 10 10 2 0 7 -4 10 -10z m-2615 -10 c0 -5 -5 -10 -11 -10 -5
0 -7 5 -4 10 3 6 8 10 11 10 2 0 4 -4 4 -10z m3040 -51 c0 -6 -4 -7 -10 -4 -5
3 -10 11 -10 16 0 6 5 7 10 4 6 -3 10 -11 10 -16z m100 -4 c31 -16 41 -45 17
-45 -13 0 -36 21 -51 48 -9 16 -1 15 34 -3z m-37 -36 c6 -21 5 -21 -18 1 -14
13 -22 27 -19 32 8 12 31 -8 37 -33z m132 21 c3 -5 1 -10 -4 -10 -6 0 -11 5
-11 10 0 6 2 10 4 10 3 0 8 -4 11 -10z m-12 -58 c8 -10 7 -16 -4 -23 -11 -7
-11 -9 4 -9 10 0 15 -4 12 -10 -12 -19 -30 -10 -44 21 -10 23 -18 29 -33 26
-24 -7 -18 0 19 23 25 15 28 15 32 1 2 -9 8 -22 14 -29z m297 -27 c0 -8 -7
-15 -16 -15 -14 0 -14 3 -4 15 7 8 14 15 16 15 2 0 4 -7 4 -15z m-1055 -35 c3
-5 1 -10 -4 -10 -6 0 -11 5 -11 10 0 6 2 10 4 10 3 0 8 -4 11 -10z m689 -16
c8 -21 8 -24 -5 -24 -6 0 -17 -7 -25 -15 -20 -20 -34 -19 -35 3 0 10 -3 12 -6
5 -7 -18 -33 -16 -33 3 0 8 5 12 10 9 6 -3 10 1 10 9 0 19 5 20 31 6 15 -9 21
-7 25 5 8 19 20 19 28 -1z m-1774 -4 c0 -5 -5 -10 -11 -10 -5 0 -7 5 -4 10 3
6 8 10 11 10 2 0 4 -4 4 -10z m2180 -23 c0 -5 -4 -5 -10 -2 -5 3 -10 14 -10
23 0 15 2 15 10 2 5 -8 10 -19 10 -23z m-1490 2 c0 -5 -7 -9 -15 -9 -15 0 -20
12 -9 23 8 8 24 -1 24 -14z m2300 11 c0 -5 -5 -10 -11 -10 -5 0 -7 5 -4 10 3
6 8 10 11 10 2 0 4 -4 4 -10z m-700 -10 c0 -5 -4 -10 -10 -10 -5 0 -10 5 -10
10 0 6 5 10 10 10 6 0 10 -4 10 -10z m-684 -109 c-3 -4 3 -16 14 -26 11 -10
20 -25 19 -34 0 -11 -4 -9 -11 7 -6 12 -17 22 -25 22 -7 0 -13 9 -13 20 0 11
5 20 11 20 5 0 8 -4 5 -9z m-1396 -306 c0 -8 -4 -15 -10 -15 -5 0 -10 7 -10
15 0 8 5 15 10 15 6 0 10 -7 10 -15z m-835 -105 c3 -5 1 -10 -4 -10 -6 0 -11
5 -11 10 0 6 2 10 4 10 3 0 8 -4 11 -10z m4595 -4 c0 -3 -4 -8 -10 -11 -5 -3
-10 -1 -10 4 0 6 5 11 10 11 6 0 10 -2 10 -4z m-1030 -16 c0 -5 -5 -10 -11
-10 -5 0 -7 5 -4 10 3 6 8 10 11 10 2 0 4 -4 4 -10z m-2820 -30 c0 -5 -4 -10
-10 -10 -5 0 -10 5 -10 10 0 6 5 10 10 10 6 0 10 -4 10 -10z m1100 -20 c0 -5
-5 -10 -11 -10 -5 0 -7 5 -4 10 3 6 8 10 11 10 2 0 4 -4 4 -10z m-2270 -300
c0 -5 -4 -10 -10 -10 -5 0 -10 5 -10 10 0 6 5 10 10 10 6 0 10 -4 10 -10z
m2380 -10 c0 -5 -5 -10 -11 -10 -5 0 -7 5 -4 10 3 6 8 10 11 10 2 0 4 -4 4
-10z m2216 -107 c-11 -11 -19 6 -11 24 8 17 8 17 12 0 3 -10 2 -21 -1 -24z
m-459 -39 c-9 -9 -28 6 -21 18 4 6 10 6 17 -1 6 -6 8 -13 4 -17z m-4237 -4 c0
-5 -4 -10 -10 -10 -5 0 -10 5 -10 10 0 6 5 10 10 10 6 0 10 -4 10 -10z m4030
-50 c0 -5 -4 -10 -10 -10 -5 0 -10 5 -10 10 0 6 5 10 10 10 6 0 10 -4 10 -10z
m-3785 -120 c3 -5 -1 -10 -10 -10 -9 0 -13 5 -10 10 3 6 8 10 10 10 2 0 7 -4
10 -10z m1327 -195 c0 -5 -5 -11 -11 -13 -6 -2 -11 4 -11 13 0 9 5 15 11 13 6
-2 11 -8 11 -13z m-1457 -15 c3 -5 1 -10 -4 -10 -6 0 -11 5 -11 10 0 6 2 10 4
10 3 0 8 -4 11 -10z m-490 -60 c3 -5 1 -10 -4 -10 -6 0 -11 5 -11 10 0 6 2 10
4 10 3 0 8 -4 11 -10z m2905 -120 c0 -5 -4 -10 -10 -10 -5 0 -10 5 -10 10 0 6
5 10 10 10 6 0 10 -4 10 -10z m1107 -96 c-9 -9 -28 6 -21 18 4 6 10 6 17 -1 6
-6 8 -13 4 -17z m-3627 -164 c0 -5 -4 -10 -10 -10 -5 0 -10 5 -10 10 0 6 5 10
10 10 6 0 10 -4 10 -10z m2390 -14 c0 -3 -4 -8 -10 -11 -5 -3 -10 -1 -10 4 0
6 5 11 10 11 6 0 10 -2 10 -4z m-1210 -501 c0 -8 -4 -15 -9 -15 -13 0 -22 16
-14 24 11 11 23 6 23 -9z m-540 -155 c0 -5 -2 -10 -4 -10 -3 0 -8 5 -11 10 -3
6 -1 10 4 10 6 0 11 -4 11 -10z m-595 -20 c3 -5 1 -10 -4 -10 -6 0 -11 5 -11
10 0 6 2 10 4 10 3 0 8 -4 11 -10z"/>
<path d="M1450 7149 c0 -5 5 -7 10 -4 6 3 10 8 10 11 0 2 -4 4 -10 4 -5 0 -10
-5 -10 -11z"/>
<path d="M1270 7110 c0 -5 5 -10 10 -10 6 0 10 5 10 10 0 6 -4 10 -10 10 -5 0
-10 -4 -10 -10z"/>
<path d="M1390 7081 c0 -14 18 -23 31 -15 8 4 7 9 -2 15 -18 11 -29 11 -29 0z"/>
<path d="M1370 7040 c0 -5 7 -10 15 -10 8 0 15 5 15 10 0 6 -7 10 -15 10 -8 0
-15 -4 -15 -10z"/>
<path d="M1338 6993 c7 -3 16 -2 19 1 4 3 -2 6 -13 5 -11 0 -14 -3 -6 -6z"/>
<path d="M2176 7029 c17 -33 30 -33 20 -1 -4 11 -13 23 -21 26 -13 5 -13 1 1
-25z"/>
<path d="M2397 6966 c-10 -8 -14 -17 -9 -20 5 -3 17 3 27 14 21 23 9 26 -18 6z"/>
<path d="M2435 6880 c3 -5 8 -10 11 -10 2 0 4 5 4 10 0 6 -5 10 -11 10 -5 0
-7 -4 -4 -10z"/>
</g>
</svg>
